<svg width="304" height="292" viewBox="0 0 304 292" fill="none" xmlns="http://www.w3.org/2000/svg">
<circle cx="151.546" cy="145.746" r="145.746" fill="url(#paint0_radial_480_537)" fill-opacity="0.2"/>
<circle cx="151.546" cy="145.746" r="145.746" fill="url(#paint1_linear_480_537)" fill-opacity="0.2"/>
<g clip-path="url(#clip0_480_537)">
<path d="M263.59 277.765C263.619 277.677 266.43 268.961 261.455 261.183L260.947 261.509C265.763 269.038 263.046 277.489 263.018 277.574L263.59 277.765Z" fill="#E4E4E4"/>
<path d="M257.898 262.302C258.005 262.811 258.211 263.294 258.505 263.724C258.798 264.153 259.173 264.521 259.609 264.805C260.044 265.089 260.531 265.285 261.041 265.38C261.552 265.476 262.076 265.47 262.585 265.363C263.093 265.255 263.575 265.049 264.004 264.754C264.432 264.46 264.799 264.084 265.083 263.648C265.366 263.212 265.561 262.724 265.657 262.212C265.752 261.7 265.746 261.175 265.639 260.665C265.188 258.523 261.366 253.191 259.229 253.643C257.091 254.095 257.447 260.159 257.898 262.302Z" fill="#E4E4E4"/>
<path d="M258.619 272.322C260.526 274.388 263.939 274.332 263.939 274.332C263.939 274.332 264.259 270.926 262.351 268.86C260.444 266.794 257.031 266.85 257.031 266.85C257.031 266.85 256.711 270.256 258.619 272.322Z" fill="#E4E4E4"/>
<path d="M287.535 278.369C287.603 278.164 294.237 257.593 282.496 239.238L281.298 240.008C292.662 257.776 286.25 277.719 286.184 277.918L287.535 278.369Z" fill="#E4E4E4"/>
<path d="M274.101 241.878C274.613 244.305 276.065 246.43 278.139 247.784C280.214 249.138 282.739 249.611 285.162 249.099C287.584 248.587 289.704 247.132 291.056 245.054C292.407 242.976 292.88 240.444 292.37 238.017C291.306 232.961 282.287 220.377 277.242 221.444C272.197 222.51 273.037 236.822 274.101 241.878Z" fill="#E4E4E4"/>
<path d="M275.802 265.525C280.305 270.401 288.359 270.269 288.359 270.269C288.359 270.269 289.114 262.231 284.612 257.355C280.109 252.479 272.055 252.611 272.055 252.611C272.055 252.611 271.3 260.649 275.802 265.525Z" fill="#E4E4E4"/>
<path d="M175.264 276.821L170.862 274.963L167.842 252.847H127.629L124.356 274.873L120.418 276.846C120.229 276.94 120.078 277.096 119.989 277.287C119.9 277.478 119.877 277.694 119.926 277.9C119.974 278.105 120.09 278.288 120.256 278.419C120.421 278.55 120.625 278.622 120.836 278.622H174.901C175.117 278.622 175.326 278.547 175.493 278.41C175.66 278.273 175.775 278.082 175.818 277.87C175.86 277.658 175.829 277.437 175.728 277.246C175.627 277.055 175.463 276.904 175.264 276.821Z" fill="#E6E6E6"/>
<path d="M246.725 255.789H49.1875C48.1511 255.787 47.1579 255.372 46.4259 254.637C45.6938 253.902 45.2827 252.905 45.2827 251.867V223.949H250.63V251.867C250.63 252.905 250.219 253.902 249.487 254.637C248.755 255.372 247.761 255.787 246.725 255.789Z" fill="#CCCCCC"/>
<path d="M250.836 237.144H45.1025V117.691C45.104 116.438 45.6015 115.236 46.486 114.349C47.3704 113.463 48.5696 112.964 49.8204 112.963H246.118C247.369 112.964 248.568 113.463 249.453 114.349C250.337 115.236 250.835 116.438 250.836 117.691V237.144Z" fill="#3F3D56"/>
<path d="M238.55 121.632H57.3894C56.4252 121.634 55.5008 122.018 54.8193 122.702C54.1378 123.385 53.7548 124.312 53.7544 125.278V224.828C53.7548 225.795 54.1378 226.721 54.8193 227.405C55.5008 228.088 56.4252 228.473 57.3894 228.474H238.55C239.514 228.473 240.438 228.088 241.119 227.404C241.801 226.721 242.184 225.794 242.185 224.828V125.278C242.184 124.312 241.801 123.386 241.119 122.702C240.438 122.019 239.514 121.634 238.55 121.632Z" fill="white"/>
<path d="M89.5014 121.632V228.474H57.3894C56.4251 228.473 55.5008 228.088 54.8193 227.405C54.1378 226.721 53.7548 225.795 53.7544 224.828V125.278C53.7548 124.312 54.1378 123.385 54.8193 122.702C55.5008 122.018 56.4251 121.634 57.3894 121.632H89.5014Z" fill="#F0F0F0"/>
<path d="M63.0097 175.605C62.6483 175.523 62.2731 175.521 61.9108 175.599C61.5484 175.678 61.2077 175.835 60.9125 176.06C60.6174 176.285 60.375 176.572 60.2024 176.901C60.0299 177.229 59.9314 177.592 59.9139 177.963L51.2703 180.517L54.8485 183.545L62.508 180.655C63.1321 180.643 63.7301 180.403 64.1889 179.978C64.6476 179.554 64.9351 178.976 64.9969 178.354C65.0588 177.731 64.8906 177.108 64.5244 176.601C64.1581 176.095 63.6192 175.74 63.0097 175.605Z" fill="#FFB6B6"/>
<path d="M28.0854 194.826C27.2309 194.825 26.4046 194.52 25.7537 193.965C25.1029 193.41 24.6699 192.642 24.5319 191.796C24.394 190.951 24.56 190.084 25.0004 189.35C25.4409 188.617 26.1271 188.063 26.9367 187.789L44.4524 181.864L58.1154 176.875L59.7921 182.757L47.7305 190.722L28.8393 194.747C28.5915 194.8 28.3388 194.826 28.0854 194.826Z" fill="#ED312F"/>
<path d="M39.0465 275.858H41.5057L42.6758 266.352H39.0459L39.0465 275.858Z" fill="#FFB6B6"/>
<path d="M38.4192 275.054L43.2624 275.054C44.081 275.054 44.8662 275.38 45.4451 275.96C46.0239 276.54 46.3491 277.327 46.3491 278.147V278.248L38.4193 278.248L38.4192 275.054Z" fill="#2F2E41"/>
<path d="M20.1902 275.858H22.6494L23.8195 266.352H20.1899L20.1902 275.858Z" fill="#FFB6B6"/>
<path d="M19.5627 275.054L24.406 275.054C25.2246 275.054 26.0098 275.38 26.5886 275.96C27.1674 276.54 27.4926 277.327 27.4927 278.147V278.248L19.5629 278.248L19.5627 275.054Z" fill="#2F2E41"/>
<path d="M20.1659 218.833C19.0404 221.461 18.7941 224.383 19.4638 227.163L18.7617 274.322H24.1629L27.1868 248.387L32.2018 231.298L37.618 244.567V272.222L42.8335 271.909L45.6419 242.557L42.4323 221.648L20.1659 218.833Z" fill="#2F2E41"/>
<path d="M39.9247 182.143L35.3109 180.735L34.1073 178.323H28.181L26.6852 180.936C26.6852 180.936 20.6672 183.148 20.4666 193.803C20.266 204.459 19.4636 221.547 19.4636 221.547L43.1927 224.938L39.9247 182.143Z" fill="#ED312F"/>
<path d="M46.7371 223.03C46.8927 222.693 46.9727 222.325 46.9714 221.954C46.9701 221.582 46.8875 221.215 46.7294 220.879C46.5714 220.543 46.3418 220.246 46.0567 220.008C45.7716 219.771 45.4381 219.599 45.0795 219.505L44.384 210.5L40.6853 213.378L41.9128 221.488C41.7946 222.102 41.9053 222.739 42.224 223.276C42.5426 223.814 43.047 224.216 43.6417 224.406C44.2363 224.596 44.8799 224.561 45.4504 224.308C46.0209 224.054 46.4787 223.599 46.7371 223.03Z" fill="#FFB6B6"/>
<path d="M40.4266 218.389L35.1602 204.908V185.552C35.1601 184.63 35.5118 183.743 36.1431 183.072C36.7744 182.402 37.6376 181.999 38.556 181.945C39.4744 181.892 40.3784 182.192 41.083 182.785C41.7876 183.377 42.2394 184.218 42.346 185.133L44.4878 203.537L46.5158 217.968L40.4266 218.389Z" fill="#ED312F"/>
<path d="M32.281 175.193C35.5518 175.193 38.2034 172.536 38.2034 169.258C38.2034 165.98 35.5518 163.322 32.281 163.322C29.0102 163.322 26.3586 165.98 26.3586 169.258C26.3586 172.536 29.0102 175.193 32.281 175.193Z" fill="#FFB9B9"/>
<path d="M32.669 167.453C32.3919 167.81 32.0121 168.132 31.9511 168.58C31.9059 168.911 32.0505 169.239 32.0642 169.574C32.0654 169.911 31.938 170.237 31.7081 170.484C31.4781 170.73 31.163 170.88 30.8268 170.902C30.5926 170.607 30.2543 170.413 29.8816 170.36C29.6961 170.339 29.5088 170.378 29.3471 170.472C29.1855 170.565 29.0581 170.709 28.9836 170.88C28.8078 171.378 29.2149 171.884 29.2803 172.408C29.289 172.796 29.2264 173.182 29.0957 173.547C28.9456 174.148 28.9055 174.784 28.6423 175.345C28.379 175.906 27.7936 176.388 27.1876 176.264C26.678 176.16 26.3332 175.666 26.1907 175.164C26.0482 174.663 26.0546 174.131 25.9514 173.621C25.6163 171.961 24.1906 170.731 23.6312 169.132C22.9145 167.085 23.7755 164.742 25.2595 163.162C25.8594 162.469 26.6426 161.961 27.5185 161.696C28.4433 161.46 29.421 161.629 30.3699 161.529C31.3847 161.421 32.3386 161.007 33.3248 160.745C34.3111 160.482 35.4127 160.383 36.3091 160.872C36.9344 161.213 37.3872 161.8 37.9698 162.21C38.6377 162.676 39.4474 162.894 40.2584 162.824L39.2899 163.248C39.6606 163.589 40.1083 163.835 40.5945 163.964C40.1988 164.279 39.7092 164.451 39.2042 164.454C39.3095 164.644 39.4527 164.81 39.6247 164.943C39.7968 165.075 39.9941 165.171 40.2046 165.224C39.4693 165.57 38.6885 165.925 37.8799 165.847C37.4839 165.809 37.1053 165.668 36.714 165.595C35.8801 165.44 35.0236 165.601 34.1906 165.761C33.7532 165.845 33.2164 165.926 32.9955 166.347C32.8115 166.698 32.9522 167.089 32.669 167.453Z" fill="#2F2E41"/>
<path d="M71.628 184.523C76.846 184.523 81.0761 180.283 81.0761 175.054C81.0761 169.824 76.846 165.584 71.628 165.584C66.41 165.584 62.1799 169.824 62.1799 175.054C62.1799 180.283 66.41 184.523 71.628 184.523Z" fill="#ED312F"/>
<path d="M77.2967 175.054H72.195V169.94H71.061V175.054H65.959V176.19H71.061V181.303H72.195V176.19H77.2967V175.054Z" fill="white"/>
<path d="M152.084 134.129C151.792 134.129 151.513 134.245 151.307 134.452C151.101 134.658 150.985 134.938 150.985 135.23V153.672C150.985 153.964 151.101 154.244 151.307 154.451C151.513 154.657 151.792 154.773 152.084 154.774H226.263C226.555 154.773 226.834 154.657 227.04 154.451C227.246 154.244 227.362 153.964 227.362 153.672V135.23C227.362 134.938 227.246 134.658 227.04 134.452C226.834 134.245 226.555 134.129 226.263 134.129H152.084Z" fill="white"/>
<path d="M152.084 134.129C151.792 134.129 151.513 134.245 151.307 134.452C151.101 134.658 150.985 134.938 150.985 135.23V153.672C150.985 153.964 151.101 154.244 151.307 154.451C151.513 154.657 151.792 154.773 152.084 154.774H226.263C226.555 154.773 226.834 154.657 227.04 154.451C227.246 154.244 227.362 153.964 227.362 153.672V135.23C227.362 134.938 227.246 134.658 227.04 134.452C226.834 134.245 226.555 134.129 226.263 134.129H152.084Z" fill="#E6E6E6"/>
<path d="M152.221 153.535H226.126V135.368H152.221V153.535Z" fill="white"/>
<path d="M160.624 140.596C160.369 140.596 160.124 140.698 159.944 140.878C159.764 141.059 159.662 141.304 159.662 141.56C159.662 141.816 159.764 142.061 159.944 142.241C160.124 142.422 160.369 142.524 160.624 142.524H217.721C217.847 142.524 217.972 142.499 218.089 142.45C218.205 142.402 218.311 142.331 218.401 142.242C218.49 142.152 218.561 142.046 218.609 141.929C218.658 141.812 218.683 141.687 218.683 141.56C218.683 141.434 218.658 141.308 218.61 141.192C218.561 141.075 218.491 140.968 218.401 140.879C218.312 140.789 218.206 140.718 218.09 140.67C217.973 140.621 217.848 140.596 217.722 140.596H160.624Z" fill="#E4E4E4"/>
<path d="M160.624 146.379C160.369 146.379 160.125 146.481 159.945 146.662C159.765 146.842 159.664 147.087 159.664 147.343C159.664 147.598 159.765 147.843 159.945 148.023C160.125 148.204 160.369 148.306 160.624 148.306H217.721C217.976 148.307 218.221 148.206 218.401 148.026C218.582 147.845 218.684 147.6 218.684 147.345C218.685 147.089 218.584 146.844 218.404 146.663C218.224 146.482 217.98 146.379 217.725 146.379H160.624Z" fill="#E4E4E4"/>
<path d="M100.5 165.42C100.208 165.421 99.9289 165.537 99.7229 165.743C99.5168 165.95 99.4009 166.23 99.4006 166.522V184.964C99.4009 185.256 99.5168 185.536 99.7228 185.742C99.9289 185.949 100.208 186.065 100.5 186.065H174.679C174.971 186.065 175.25 185.949 175.456 185.742C175.662 185.536 175.778 185.256 175.778 184.964V166.522C175.778 166.23 175.662 165.95 175.456 165.743C175.25 165.537 174.971 165.421 174.679 165.42H100.5Z" fill="white"/>
<path d="M100.5 165.42C100.208 165.421 99.9289 165.537 99.7229 165.743C99.5168 165.95 99.4009 166.23 99.4006 166.522V184.964C99.4009 185.256 99.5168 185.536 99.7228 185.742C99.9289 185.949 100.208 186.065 100.5 186.065H174.679C174.971 186.065 175.25 185.949 175.456 185.742C175.662 185.536 175.778 185.256 175.778 184.964V166.522C175.778 166.23 175.662 165.95 175.456 165.743C175.25 165.537 174.971 165.421 174.679 165.42H100.5Z" fill="#E6E6E6"/>
<path d="M100.637 184.826H174.542V166.66H100.637V184.826Z" fill="white"/>
<path d="M109.04 171.888C108.785 171.888 108.54 171.989 108.36 172.17C108.179 172.351 108.078 172.596 108.078 172.851C108.078 173.107 108.179 173.352 108.36 173.533C108.54 173.714 108.785 173.815 109.04 173.815H166.137C166.263 173.815 166.388 173.79 166.505 173.742C166.621 173.694 166.727 173.623 166.817 173.533C166.906 173.444 166.977 173.338 167.025 173.221C167.074 173.104 167.098 172.978 167.099 172.852C167.099 172.725 167.074 172.6 167.025 172.483C166.977 172.366 166.906 172.26 166.817 172.17C166.728 172.081 166.622 172.01 166.505 171.961C166.389 171.913 166.264 171.888 166.137 171.888H109.04Z" fill="#E4E4E4"/>
<path d="M109.04 177.67C108.785 177.671 108.541 177.773 108.361 177.953C108.181 178.134 108.08 178.379 108.08 178.634C108.08 178.889 108.181 179.134 108.361 179.315C108.541 179.496 108.785 179.597 109.04 179.598H166.137C166.392 179.598 166.636 179.497 166.817 179.317C166.998 179.137 167.1 178.892 167.1 178.636C167.101 178.381 167 178.135 166.82 177.954C166.64 177.773 166.396 177.671 166.141 177.67H109.04Z" fill="#E4E4E4"/>
<path d="M190.919 214.916C191.249 214.88 191.568 214.771 191.852 214.598C192.136 214.425 192.378 214.192 192.562 213.914C192.747 213.637 192.868 213.323 192.918 212.993C192.968 212.664 192.945 212.328 192.851 212.008L199.425 207.302L195.507 205.79L189.865 210.491C189.34 210.685 188.904 211.065 188.639 211.559C188.375 212.053 188.301 212.627 188.431 213.173C188.561 213.718 188.886 214.197 189.344 214.519C189.803 214.84 190.363 214.981 190.919 214.916Z" fill="#FFB7B7"/>
<path d="M194.569 211.817L192.388 208.084L192.434 208.031L201.233 197.991L208.066 186.313L213.998 187.071L214.086 188.869L214.068 188.895L204.642 203.096L204.632 203.105L194.569 211.817Z" fill="#3F3D56"/>
<path d="M223.642 274.988L220.287 274.988L218.69 262.018L223.642 262.018L223.642 274.988Z" fill="#FFB7B7"/>
<path d="M224.497 278.248L213.679 278.247V278.11C213.679 276.991 214.123 275.918 214.913 275.126C215.702 274.335 216.773 273.89 217.89 273.89L224.498 273.89L224.497 278.248Z" fill="#2F2E41"/>
<path d="M194.767 274.878L191.503 274.097L192.956 261.11L197.773 262.263L194.767 274.878Z" fill="#FFB7B7"/>
<path d="M194.844 278.248L184.322 275.729L184.353 275.596C184.613 274.507 185.293 273.567 186.244 272.981C187.196 272.395 188.341 272.211 189.427 272.471L195.854 274.009L194.844 278.248Z" fill="#2F2E41"/>
<path d="M207.806 180.384V174.724C207.806 172.713 208.603 170.783 210.023 169.361C211.442 167.939 213.367 167.14 215.374 167.14C217.381 167.14 219.306 167.939 220.725 169.361C222.144 170.783 222.941 172.713 222.941 174.724V180.384C222.941 180.654 222.834 180.913 222.643 181.104C222.453 181.295 222.194 181.403 221.925 181.403H208.823C208.553 181.403 208.295 181.295 208.104 181.104C207.914 180.913 207.806 180.654 207.806 180.384Z" fill="#2F2E41"/>
<path d="M213.506 181.317C216.57 181.317 219.054 178.827 219.054 175.756C219.054 172.685 216.57 170.195 213.506 170.195C210.442 170.195 207.958 172.685 207.958 175.756C207.958 178.827 210.442 181.317 213.506 181.317Z" fill="#FFB7B7"/>
<path d="M206.016 175.177C206.018 173.586 206.649 172.061 207.771 170.936C208.893 169.812 210.415 169.179 212.002 169.177H213.132C214.719 169.179 216.24 169.812 217.363 170.936C218.485 172.061 219.116 173.586 219.118 175.177V175.29H216.731L215.917 173.005L215.754 175.29H214.52L214.11 174.137L214.027 175.29H206.016V175.177Z" fill="#2F2E41"/>
<path d="M216.742 205.105L202.615 204.566L201.826 195.303C201.217 193.608 201.207 192.152 201.797 190.977C202.304 190.011 203.156 189.273 204.182 188.91L207.273 185.168C207.671 184.687 208.17 184.301 208.735 184.037C209.3 183.773 209.917 183.638 210.54 183.642L218.571 183.697C218.765 183.581 219.939 182.982 222.255 183.989C224.767 185.08 224.184 188.87 224.178 188.909L224.172 188.944L224.144 188.968L218.802 193.476L216.742 205.105Z" fill="#3F3D56"/>
<path d="M202.728 203.571L196.046 215.781L190.98 271.331L196.704 273.083L206.836 229.628L218.595 271.85L225.456 272.022L220.784 223.298L216.701 204.434L202.728 203.571Z" fill="#2F2E41"/>
<path d="M159.481 194.52C159.203 194.43 158.902 194.455 158.642 194.587C158.383 194.72 158.187 194.951 158.096 195.228L152.422 212.771C152.333 213.049 152.357 213.351 152.489 213.611C152.622 213.872 152.852 214.068 153.129 214.159L223.693 237.085C223.971 237.174 224.272 237.15 224.532 237.017C224.791 236.885 224.987 236.654 225.078 236.376L230.752 218.833C230.841 218.555 230.817 218.253 230.685 217.993C230.552 217.733 230.322 217.536 230.045 217.446L159.481 194.52Z" fill="white"/>
<path d="M159.481 194.52C159.203 194.43 158.902 194.455 158.642 194.587C158.383 194.72 158.187 194.951 158.096 195.228L152.422 212.771C152.333 213.049 152.357 213.351 152.489 213.611C152.622 213.872 152.852 214.068 153.129 214.159L223.693 237.085C223.971 237.174 224.272 237.15 224.532 237.017C224.791 236.885 224.987 236.654 225.078 236.376L230.752 218.833C230.841 218.555 230.817 218.253 230.685 217.993C230.552 217.733 230.322 217.536 230.045 217.446L159.481 194.52Z" fill="#E6E6E6"/>
<path d="M153.641 213.022L223.944 235.863L229.533 218.582L159.23 195.741L153.641 213.022Z" fill="white"/>
<path d="M165.615 203.311C165.372 203.233 165.108 203.254 164.881 203.37C164.654 203.486 164.483 203.688 164.404 203.931C164.325 204.174 164.346 204.439 164.462 204.666C164.578 204.894 164.779 205.066 165.022 205.145L219.336 222.791C219.456 222.83 219.583 222.845 219.709 222.836C219.835 222.826 219.958 222.791 220.07 222.734C220.183 222.676 220.283 222.597 220.365 222.501C220.447 222.404 220.509 222.293 220.548 222.172C220.588 222.052 220.602 221.925 220.592 221.799C220.582 221.672 220.548 221.549 220.49 221.437C220.433 221.324 220.354 221.223 220.258 221.141C220.161 221.059 220.05 220.997 219.93 220.958L219.929 220.958L165.615 203.311Z" fill="#ED312F"/>
<path d="M163.836 208.812C163.593 208.734 163.33 208.755 163.103 208.871C162.876 208.988 162.705 209.189 162.626 209.432C162.548 209.675 162.568 209.939 162.684 210.167C162.8 210.394 163 210.566 163.243 210.646L217.557 228.292C217.799 228.371 218.063 228.351 218.291 228.235C218.518 228.119 218.69 227.918 218.769 227.675C218.849 227.432 218.828 227.167 218.713 226.939C218.597 226.711 218.396 226.539 218.154 226.459L218.15 226.458L163.836 208.812Z" fill="#ED312F"/>
<path d="M220.581 223.338C220.828 223.115 221.024 222.841 221.154 222.535C221.284 222.228 221.346 221.897 221.334 221.564C221.323 221.231 221.239 220.904 221.088 220.608C220.937 220.311 220.723 220.051 220.461 219.846L223.07 212.183L219.006 213.241L217.152 220.356C216.838 220.82 216.704 221.383 216.776 221.939C216.849 222.495 217.122 223.005 217.545 223.373C217.967 223.74 218.51 223.94 219.069 223.933C219.629 223.927 220.167 223.715 220.581 223.338Z" fill="#FFB7B7"/>
<path d="M221.746 218.687L217.804 216.926L219.128 203.558L217.896 190.078L223.158 187.231L224.274 188.641L224.275 188.673L224.866 205.718L224.863 205.731L221.746 218.687Z" fill="#3F3D56"/>
<path d="M303.151 278.852H96.98C96.8757 278.855 96.7737 278.822 96.6897 278.76C96.6057 278.698 96.5445 278.61 96.5157 278.51C96.4977 278.441 96.4956 278.37 96.5096 278.3C96.5236 278.231 96.5532 278.166 96.5963 278.11C96.6393 278.054 96.6946 278.008 96.7579 277.977C96.8212 277.946 96.8908 277.93 96.9614 277.929H303.113C303.223 277.926 303.331 277.959 303.42 278.025C303.508 278.09 303.572 278.184 303.601 278.29C303.615 278.358 303.615 278.428 303.599 278.495C303.584 278.563 303.553 278.626 303.51 278.679C303.467 278.733 303.412 278.777 303.35 278.807C303.288 278.837 303.22 278.852 303.151 278.852Z" fill="#CCCCCC"/>
<path d="M69.6638 278.852H0.749546C0.64527 278.855 0.54319 278.822 0.459211 278.76C0.375233 278.698 0.314072 278.61 0.285259 278.51C0.267271 278.441 0.265177 278.37 0.279137 278.3C0.293097 278.231 0.322738 278.166 0.365782 278.11C0.408826 278.054 0.464124 278.008 0.527421 277.977C0.590718 277.946 0.660327 277.93 0.73089 277.929H69.6261C69.7361 277.926 69.8441 277.959 69.9327 278.025C70.0212 278.09 70.085 278.184 70.1136 278.29C70.1286 278.358 70.1282 278.428 70.1125 278.495C70.0969 278.563 70.0663 278.626 70.0232 278.679C69.98 278.733 69.9253 278.777 69.8631 278.807C69.8009 278.837 69.7328 278.852 69.6638 278.852Z" fill="#CCCCCC"/>
</g>
<defs>
<radialGradient id="paint0_radial_480_537" cx="0" cy="0" r="1" gradientUnits="userSpaceOnUse" gradientTransform="translate(151.546 145.746) rotate(90) scale(145.746)">
<stop stop-color="#528EB4" stop-opacity="0.81"/>
<stop offset="1" stop-color="#36627D" stop-opacity="0.29"/>
</radialGradient>
<linearGradient id="paint1_linear_480_537" x1="151.546" y1="2.78054e-06" x2="180.99" y2="275.297" gradientUnits="userSpaceOnUse">
<stop stop-color="#75A5E6"/>
<stop offset="1" stop-color="#124386"/>
</linearGradient>
<clipPath id="clip0_480_537">
<rect width="303.341" height="165.889" fill="white" transform="translate(0.270508 112.963)"/>
</clipPath>
</defs>
</svg>
