<svg width="469" height="180" viewBox="0 0 469 180" fill="none" xmlns="http://www.w3.org/2000/svg">
<path d="M1 167.5C1 168.609 1.16449 169.682 1.47109 170.694L2.42813 170.404C2.61974 171.036 2.87231 171.642 3.17901 172.215L2.29749 172.687C3.32307 174.602 4.89828 176.177 6.81303 177.202L7.28519 176.321C7.85779 176.628 8.46373 176.88 9.09616 177.072L8.8062 178.029C9.81818 178.336 10.8908 178.5 12 178.5H14.9799V177.5H16.9665V178.5H22.9263V177.5H24.9129V178.5H30.8728V177.5H32.8594V178.5H38.8192V177.5H40.8058V178.5H46.7656V177.5H48.7522V178.5H54.712V177.5H56.6987V178.5H62.6585V177.5H64.6451V178.5H70.6049V177.5H72.5915V178.5H78.5513V177.5H80.5379V178.5H86.4978V177.5H88.4844V178.5H94.4442V177.5H96.4308V178.5H102.391V177.5H104.377V178.5H110.337V177.5H112.324V178.5H118.283V177.5H120.27V178.5H126.23V177.5H128.217V178.5H134.176V177.5H136.163V178.5H142.123V177.5H144.109V178.5H150.069V177.5H152.056V178.5H158.016V177.5H160.002V178.5H165.962V177.5H167.949V178.5H173.909V177.5H175.895V178.5H181.855V177.5H183.842V178.5H189.801V177.5H191.788V178.5H197.748V177.5H199.734V178.5H205.694V177.5H207.681V178.5H213.641V177.5H215.627V178.5H221.587V177.5H223.574V178.5H229.533V177.5H231.52V178.5H237.48V177.5H239.467V178.5H245.426V177.5H247.413V178.5H253.373V177.5H255.359V178.5H261.319V177.5H263.306V178.5H269.266V177.5H271.252V178.5H277.212V177.5H279.199V178.5H285.158V177.5H287.145V178.5H293.105V177.5H295.091V178.5H301.051V177.5H303.038V178.5H308.998V177.5H310.984V178.5H316.944V177.5H318.931V178.5H324.891V177.5H326.877V178.5H332.837V177.5H334.824V178.5H340.783V177.5H342.77V178.5H348.73V177.5H350.716V178.5H356.676V177.5H358.663V178.5H364.623V177.5H366.609V178.5H372.569V177.5H374.556V178.5H380.515V177.5H382.502V178.5H388.462V177.5H390.448V178.5H396.408V177.5H398.395V178.5H404.355V177.5H406.341V178.5H412.301V177.5H414.288V178.5H420.247V177.5H422.234V178.5H428.194V177.5H430.18V178.5H436.14V177.5H438.127V178.5H444.087V177.5H446.073V178.5H452.033V177.5H454.02V178.5H457C458.109 178.5 459.182 178.336 460.194 178.029L459.904 177.072C460.536 176.88 461.142 176.628 461.715 176.321L462.187 177.202C464.102 176.177 465.677 174.602 466.703 172.687L465.821 172.215C466.128 171.642 466.38 171.036 466.572 170.404L467.529 170.694C467.836 169.682 468 168.609 468 167.5V164.441H467V162.401H468V156.283H467V154.243H468V148.125H467V146.086H468V139.967H467V137.928H468V131.809H467V129.77H468V123.651H467V121.612H468V115.493H467V113.454H468V107.336H467V105.296H468V99.1776H467V97.1382H468V91.0197H467V88.9803H468V82.8618H467V80.8224H468V74.7039H467V72.6645H468V66.546H467V64.5066H468V58.3881H467V56.3487H468V50.2302H467V48.1908H468V42.0723H467V40.0329H468V33.9144H467V31.875H468V25.7565H467V23.7171H468V17.5986H467V15.5592H468V12.5C468 11.3908 467.836 10.3182 467.529 9.30621L466.572 9.59617C466.38 8.96374 466.128 8.3578 465.821 7.7852L466.703 7.31304C465.677 5.39828 464.102 3.82307 462.187 2.79749L461.715 3.67901C461.142 3.37231 460.536 3.11974 459.904 2.92813L460.194 1.97109C459.182 1.66449 458.109 1.5 457 1.5H454.02V2.5H452.033V1.5H446.074V2.5H444.087V1.5H438.127V2.5H436.141V1.5H430.181V2.5H428.194V1.5H422.234V2.5H420.248V1.5H414.288V2.5H412.301V1.5H406.342V2.5H404.355V1.5H398.395V2.5H396.408V1.5H390.449V2.5H388.462V1.5H382.502V2.5H380.516V1.5H374.556V2.5H372.569V1.5H366.609V2.5H364.623V1.5H358.663V2.5H356.676V1.5H350.716V2.5H348.73V1.5H342.77V2.5H340.783V1.5H334.824V2.5H332.837V1.5H326.877V2.5H324.891V1.5H318.931V2.5H316.944V1.5H310.984V2.5H308.998V1.5H303.038V2.5H301.051V1.5H295.091V2.5H293.105V1.5H287.145V2.5H285.158V1.5H279.199V2.5H277.212V1.5H271.252V2.5H269.266V1.5H263.306V2.5H261.319V1.5H255.359V2.5H253.373V1.5H247.413V2.5H245.426V1.5H239.467V2.5H237.48V1.5H231.52V2.5H229.533V1.5H223.574V2.5H221.587V1.5H215.627V2.5H213.641V1.5H207.681V2.5H205.694V1.5H199.734V2.5H197.748V1.5H191.788V2.5H189.801V1.5H183.842V2.5H181.855V1.5H175.895V2.5H173.909V1.5H167.949V2.5H165.962V1.5H160.002V2.5H158.016V1.5H152.056V2.5H150.069V1.5H144.11V2.5H142.123V1.5H136.163V2.5H134.176V1.5H128.217V2.5H126.23V1.5H120.27V2.5H118.284V1.5H112.324V2.5H110.337V1.5H104.377V2.5H102.391V1.5H96.431V2.5H94.4444V1.5H88.4846V2.5H86.498V1.5H80.5382V2.5H78.5516V1.5H72.5918V2.5H70.6052V1.5H64.6454V2.5H62.6588V1.5H56.699V2.5H54.7124V1.5H48.7526V2.5H46.766V1.5H40.8061V2.5H38.8195V1.5H32.8597V2.5H30.8731V1.5H24.9133V2.5H22.9267V1.5H16.9669V2.5H14.9803V1.5H12C10.8908 1.5 9.81819 1.66449 8.80621 1.97109L9.09617 2.92813C8.46374 3.11974 7.8578 3.37231 7.28519 3.67901L6.81304 2.79749C4.89828 3.82307 3.32307 5.39828 2.29749 7.31304L3.17901 7.78519C2.87231 8.3578 2.61974 8.96374 2.42813 9.59617L1.47109 9.30621C1.16449 10.3182 1 11.3908 1 12.5V15.5592H2V17.5987H1V23.7171H2V25.7566H1V31.875H2V33.9145H1V40.0329H2V42.0724H1V48.1908H2V50.2303H1V56.3487H2V58.3882H1V64.5066H2V66.5461H1V72.6645H2V74.7039H1V80.8224H2V82.8618H1V88.9803H2V91.0197H1V97.1382H2V99.1776H1V105.296H2V107.336H1V113.454H2V115.493H1V121.612H2V123.651H1V129.77H2V131.809H1V137.928H2V139.967H1V146.086H2V148.125H1V154.243H2V156.283H1V162.401H2V164.441H1V167.5Z" fill="#F4F4F4" stroke="#E3E3E3" stroke-width="2" stroke-dasharray="6 2"/>
</svg>
