<svg width="55" height="20" viewBox="0 0 55 20" fill="none" xmlns="http://www.w3.org/2000/svg">
<path d="M30.1088 17.5V4.64211H32.9758V2.49951H25V4.64234H27.8669V17.5002L30.1088 17.5Z" fill="black"/>
<path d="M33.8691 12.258V14.4331C33.8691 16.2772 35.1531 17.4996 37.0896 17.4996C39.0261 17.4996 40.3302 16.2769 40.3302 14.4331V12.4442C40.3302 9.10823 36.1518 8.92209 36.1518 7.01578V5.52411C36.1418 5.39765 36.1591 5.27051 36.2025 5.15131C36.246 5.03212 36.3145 4.92366 36.4035 4.83328C36.4926 4.74291 36.6 4.67273 36.7185 4.62751C36.837 4.58229 36.9639 4.56308 37.0905 4.57119C37.2176 4.56456 37.3447 4.58463 37.4636 4.6301C37.5825 4.67558 37.6905 4.74545 37.7808 4.83522C37.871 4.92499 37.9415 5.03267 37.9876 5.15132C38.0337 5.26997 38.0544 5.39696 38.0484 5.52411V7.49316H40.2903V5.54564C40.2903 3.72244 39.0064 2.50049 37.0905 2.50049C35.1746 2.50049 33.9108 3.7229 33.9108 5.54564V7.28572C33.9108 10.6214 38.0892 10.8078 38.0892 12.6933V14.4334C38.0966 14.5662 38.0757 14.6992 38.0281 14.8235C37.9805 14.9477 37.9071 15.0605 37.8128 15.1544C37.7184 15.2483 37.6053 15.3212 37.4809 15.3683C37.3564 15.4154 37.2233 15.4357 37.0905 15.4277C36.9586 15.4353 36.8267 15.4147 36.7035 15.3672C36.5802 15.3197 36.4686 15.2464 36.3759 15.1523C36.2833 15.0581 36.2118 14.9453 36.1663 14.8213C36.1208 14.6973 36.1023 14.5651 36.112 14.4334V12.2582L33.8691 12.258Z" fill="black"/>
<path d="M47.6655 7.49267V5.54515C47.6655 3.72195 46.3813 2.5 44.4453 2.5C42.5093 2.5 41.2249 3.72241 41.2249 5.54515V14.4336C41.2249 16.2776 42.5091 17.5 44.4453 17.5C46.3815 17.5 47.6655 16.2774 47.6655 14.4336V12.2584H45.4234V14.4336C45.4262 14.5638 45.403 14.6933 45.3551 14.8145C45.3072 14.9357 45.2356 15.046 45.1444 15.1392C45.0533 15.2323 44.9445 15.3063 44.8244 15.3568C44.7043 15.4073 44.5753 15.4333 44.4451 15.4333C44.3148 15.4333 44.1858 15.4073 44.0657 15.3568C43.9456 15.3063 43.8368 15.2323 43.7457 15.1392C43.6546 15.046 43.583 14.9357 43.5351 14.8145C43.4872 14.6933 43.4639 14.5638 43.4667 14.4336V5.56599C43.4639 5.43573 43.4872 5.30622 43.5351 5.18506C43.583 5.06389 43.6546 4.95351 43.7457 4.86039C43.8368 4.76727 43.9456 4.69329 44.0657 4.64278C44.1858 4.59227 44.3148 4.56625 44.4451 4.56625C44.5753 4.56625 44.7043 4.59227 44.8244 4.64278C44.9445 4.69329 45.0533 4.76727 45.1444 4.86039C45.2356 4.95351 45.3072 5.06389 45.3551 5.18506C45.403 5.30622 45.4262 5.43573 45.4234 5.56599V7.49267H47.6655Z" fill="black"/>
<path d="M51.7798 2.49951C49.8433 2.49951 48.5593 3.72192 48.5593 5.54466V14.4331C48.5593 16.2771 49.8435 17.4995 51.7798 17.4995C53.716 17.4995 55 16.2769 55 14.4331V5.54512C55.0002 3.72192 53.716 2.49951 51.7798 2.49951ZM52.7581 14.4335C52.7609 14.5638 52.7377 14.6933 52.6898 14.8145C52.6419 14.9356 52.5703 15.046 52.4792 15.1391C52.388 15.2322 52.2792 15.3062 52.1591 15.3567C52.039 15.4072 51.9101 15.4333 51.7798 15.4333C51.6495 15.4333 51.5205 15.4072 51.4004 15.3567C51.2803 15.3062 51.1715 15.2322 51.0804 15.1391C50.9893 15.046 50.9177 14.9356 50.8698 14.8145C50.8219 14.6933 50.7986 14.5638 50.8015 14.4335V5.56596C50.7986 5.4357 50.8219 5.30619 50.8698 5.18502C50.9177 5.06386 50.9893 4.95348 51.0804 4.86036C51.1715 4.76724 51.2803 4.69326 51.4004 4.64275C51.5205 4.59224 51.6495 4.56622 51.7798 4.56622C51.9101 4.56622 52.039 4.59224 52.1591 4.64275C52.2792 4.69326 52.388 4.76724 52.4792 4.86036C52.5703 4.95348 52.6419 5.06386 52.6898 5.18502C52.7377 5.30619 52.7609 5.4357 52.7581 5.56596V14.4335Z" fill="black"/>
<path d="M0 2.49863V16.463L0.732649 15.7324L15.7324 0.73267L16.4628 0H2.49901C1.83641 0.000303264 1.20102 0.263635 0.732443 0.732139C0.263866 1.20064 0.000424678 1.836 0 2.49863Z" fill="url(#paint0_linear_480_787)"/>
<path d="M9.99989 13.5361L3.53589 20.0001H16.4637L9.99989 13.5361Z" fill="url(#paint1_linear_480_787)"/>
<path d="M20.0001 16.4638V3.53564L13.5361 9.9996L20.0001 16.4638Z" fill="url(#paint2_linear_480_787)"/>
<defs>
<linearGradient id="paint0_linear_480_787" x1="11.791" y1="2.40407" x2="1.37354" y2="8.92912" gradientUnits="userSpaceOnUse">
<stop stop-color="#00B5E2"/>
<stop offset="1" stop-color="#006EB3"/>
</linearGradient>
<linearGradient id="paint1_linear_480_787" x1="12.5923" y1="11.5625" x2="6.75382" y2="19.118" gradientUnits="userSpaceOnUse">
<stop stop-color="#00B5E2"/>
<stop offset="1" stop-color="#006EB3"/>
</linearGradient>
<linearGradient id="paint2_linear_480_787" x1="19.461" y1="3.43444" x2="23.0099" y2="11.3334" gradientUnits="userSpaceOnUse">
<stop stop-color="#00B5E2"/>
<stop offset="1" stop-color="#006EB3"/>
</linearGradient>
</defs>
</svg>
