<svg width="53" height="51" viewBox="0 0 53 51" fill="none" xmlns="http://www.w3.org/2000/svg">
<path fill-rule="evenodd" clip-rule="evenodd" d="M25.1963 32.5296C25.9163 31.8096 27.0837 31.8096 27.8037 32.5296L32.7204 37.4463C33.4404 38.1663 33.4404 39.3337 32.7204 40.0537C32.0004 40.7738 30.833 40.7738 30.1129 40.0537L28.3437 38.2845V48.5833C28.3437 49.6016 27.5183 50.4271 26.5 50.4271C25.4817 50.4271 24.6562 49.6016 24.6562 48.5833V38.2845L22.887 40.0537C22.167 40.7738 20.9996 40.7738 20.2796 40.0537C19.5596 39.3337 19.5596 38.1663 20.2796 37.4463L25.1963 32.5296Z" fill="#1C274C"/>
<path d="M27.6706 3.71875C20.91 3.71875 15.4668 9.12913 15.4668 15.7574C15.4668 16.8935 15.6258 17.9906 15.9225 19.0296C17.1448 19.3823 18.2889 19.9165 19.3228 20.6003C20.172 21.1621 20.4051 22.306 19.8433 23.1553C19.2815 24.0046 18.1376 24.2376 17.2883 23.6758C16.3522 23.0566 15.2879 22.6124 14.1427 22.3901C13.5974 22.2843 13.0324 22.2286 12.4524 22.2286C7.6313 22.2286 3.76041 26.0851 3.76041 30.7966C3.76041 35.508 7.6313 39.3646 12.4524 39.3646C13.4706 39.3646 14.2961 40.1901 14.2961 41.2083C14.2961 42.2266 13.4706 43.0521 12.4524 43.0521C5.63601 43.0521 0.0729065 37.5856 0.0729065 30.7966C0.0729065 24.1486 5.40718 18.7689 12.029 18.5481C11.8649 17.6416 11.7793 16.7089 11.7793 15.7574C11.7793 7.05156 18.9147 0.03125 27.6706 0.03125C35.4342 0.03125 41.9196 5.547 43.2939 12.8669C48.9478 15.2668 52.9271 20.827 52.9271 27.326C52.9271 34.8828 47.549 41.1698 40.4064 42.6972C39.4106 42.9102 38.4308 42.2756 38.2178 41.2798C38.0049 40.2841 38.6395 39.3042 39.6353 39.0913C45.1413 37.9138 49.2396 33.0786 49.2396 27.326C49.2396 22.0732 45.8242 17.5859 41.0347 15.9481C39.7844 15.5205 38.4397 15.2874 37.0357 15.2874C35.6034 15.2874 34.2328 15.53 32.9611 15.9742C31.9998 16.31 30.9483 15.8029 30.6125 14.8415C30.2768 13.8802 30.7839 12.8287 31.7452 12.4929C33.4028 11.914 35.1842 11.5999 37.0357 11.5999C37.7621 11.5999 38.4777 11.6482 39.1792 11.7419C37.506 7.07759 32.9953 3.71875 27.6706 3.71875Z" fill="#1C274C"/>
</svg>
