<?xml version="1.0" encoding="utf-8"?>
<!-- Generator: Adobe Illustrator 27.9.0, SVG Export Plug-In . SVG Version: 6.00 Build 0)  -->
<svg version="1.1" id="Camada_1" xmlns="http://www.w3.org/2000/svg" xmlns:xlink="http://www.w3.org/1999/xlink" x="0px" y="0px"
	 viewBox="0 0 28 25" style="enable-background:new 0 0 28 25;" xml:space="preserve">
<style type="text/css">
	.st0{fill:#2F321C;}
	.st1{fill:#FF9900;}
	.st2{fill:#FFFFFF;}
	.st3{fill:none;}
</style>
<path class="st0" d="M20,20.7H3.4c-0.3,0-0.6-0.1-0.8-0.4s-0.3-0.5-0.2-0.8L5,6.3c0.3-1.5,1.1-2.9,2.4-3.9c1.2-1,2.7-1.5,4.3-1.5
	s3.1,0.5,4.3,1.5c1.2,1,2,2.4,2.4,3.9L21,19.5c0.1,0.3,0,0.6-0.2,0.8C20.6,20.6,20.3,20.7,20,20.7z M4.6,18.7h14.2l-2.4-12
	c-0.2-1.1-0.8-2.1-1.7-2.8C13,2.6,10.4,2.6,8.7,4C7.8,4.7,7.2,5.7,7,6.7L4.6,18.7z"/>
<path class="st0" d="M23,20.7H1c-0.6,0-1-0.4-1-1s0.4-1,1-1h22c0.6,0,1,0.4,1,1S23.6,20.7,23,20.7z"/>
<path class="st0" d="M11.7,24.2c-1.2,0-2.3-0.5-3.2-1.3s-1.3-2-1.4-3.2c0-0.6,0.4-1,1-1l0,0c0.5,0,1,0.4,1,1c0,0.7,0.3,1.3,0.8,1.8
	c1,0.9,2.6,0.9,3.6,0c0.5-0.5,0.8-1.1,0.8-1.8c0-0.5,0.5-1,1-1l0,0c0.6,0,1,0.5,1,1c0,1.2-0.5,2.3-1.4,3.2
	C14,23.7,12.9,24.2,11.7,24.2z"/>
<path class="st1" d="M17.8,8.1c1.9,0,3.5-1.6,3.5-3.5S19.7,1,17.8,1s-3.5,1.6-3.5,3.5S15.8,8.1,17.8,8.1z"/>
<path class="st2" d="M17.8,9.1c-2.5,0-4.5-2-4.5-4.5s2-4.5,4.5-4.5s4.5,2,4.5,4.5C22.3,7,20.3,9.1,17.8,9.1z M17.8,1
	c-1.9,0-3.5,1.6-3.5,3.5S15.9,8,17.8,8s3.5-1.6,3.5-3.5S19.7,1,17.8,1z"/>
<rect class="st3" width="24" height="24.3"/>
</svg>
