<svg xmlns="http://www.w3.org/2000/svg" width="103" height="103" viewBox="0 0 103 103">
  <g id="Grupo_12316" data-name="Grupo 12316" transform="translate(-174 -253.144)">
    <g id="Grupo_12311" data-name="Grupo 12311" transform="translate(174 253.631)">
      <circle id="Elipse_1204" data-name="Elipse 1204" cx="51.5" cy="51.5" r="51.5" transform="translate(0 -0.487)" fill="#e6e7ec"/>
      <circle id="Elipse_1205" data-name="Elipse 1205" cx="2.758" cy="2.758" r="2.758" transform="translate(80.904 33.429)" fill="#fff"/>
      <circle id="Elipse_1206" data-name="Elipse 1206" cx="3.809" cy="3.809" r="3.809" transform="translate(86.42 24.761)" fill="#fff"/>
      <circle id="Elipse_1207" data-name="Elipse 1207" cx="1.051" cy="1.051" r="1.051" transform="translate(79.853 25.811)" fill="#fff"/>
    </g>
    <g id="Grupo_12334" data-name="Grupo 12334" transform="translate(198.279 277.911)">
      <g id="loupe_1_" data-name="loupe (1)" transform="translate(0)">
        <g id="Grupo_12311-2" data-name="Grupo 12311" transform="translate(4.169 4.165)">
          <g id="Grupo_12310" data-name="Grupo 12310">
            <path id="Caminho_19575" data-name="Caminho 19575" d="M176.377,44.806a15.67,15.67,0,0,1,18.833-2.961,1.043,1.043,0,1,1-1.013,1.823A13.558,13.558,0,1,0,199.63,49.1a1.043,1.043,0,0,1,1.828-1.005c.064.116.178.333.287.555h0a15.645,15.645,0,1,1-25.368-3.843Z" transform="translate(-172.081 -39.94)" fill="#2e3361"/>
          </g>
        </g>
        <g id="Grupo_12313" data-name="Grupo 12313">
          <g id="Grupo_12312" data-name="Grupo 12312">
            <path id="Caminho_19576" data-name="Caminho 19576" d="M5.794,5.794A19.818,19.818,0,0,1,35.858,31.433l3.25,3.249a3.129,3.129,0,0,1,3.562.612l9.194,9.195a5.214,5.214,0,1,1-7.374,7.374l-9.2-9.194a3.129,3.129,0,0,1-.612-3.562l-3.25-3.25A19.818,19.818,0,0,1,5.794,5.794Zm30.975,35.4,9.2,9.194a3.128,3.128,0,0,0,4.424-4.424l-9.194-9.195a1.044,1.044,0,0,0-1.474,0L36.769,39.72A1.044,1.044,0,0,0,36.769,41.194Zm-.737-3.687,1.475-1.475-2.97-2.969c-.233.259-.472.512-.717.757s-.5.485-.757.718ZM7.269,32.345a17.731,17.731,0,1,0,0-25.075A17.7,17.7,0,0,0,7.269,32.345Z" transform="translate(0 0)" fill="#2e3361"/>
            <circle id="Elipse_1214" data-name="Elipse 1214" cx="11.978" cy="11.978" r="11.978" transform="translate(8 8)" fill="rgba(31,100,188,0.15)"/>
          </g>
        </g>
        <g id="Grupo_12315" data-name="Grupo 12315" transform="translate(29.089 8.439)">
          <g id="Grupo_12314" data-name="Grupo 12314" transform="translate(0)">
            <path id="Caminho_19577" data-name="Caminho 19577" d="M213.332,81.254a.3.3,0,0,1,.025-.027,1.044,1.044,0,1,1,1.476,1.476l-.027.026a1.043,1.043,0,0,1-1.474-1.475Z" transform="translate(-213.052 -80.922)" fill="#2e3361"/>
          </g>
        </g>
      </g>
      <g id="Grupo_12312-2" data-name="Grupo 12312" transform="translate(20.018 13.384)">
        <line id="Linha_258" data-name="Linha 258" y2="7.391" fill="none" stroke="#2e3361" stroke-linecap="round" stroke-width="3"/>
        <line id="Linha_259" data-name="Linha 259" y2="0.865" transform="translate(0 11.824)" fill="none" stroke="#2e3361" stroke-linecap="round" stroke-width="3"/>
      </g>
    </g>
  </g>
</svg>
