<svg xmlns="http://www.w3.org/2000/svg" width="103" height="103" viewBox="0 0 103 103">
  <g id="Grupo_12336" data-name="Grupo 12336" transform="translate(-108 -231.631)">
    <g id="Grupo_12290" data-name="Grupo 12290" transform="translate(108 231.631)">
      <circle id="Elipse_1204" data-name="Elipse 1204" cx="51.5" cy="51.5" r="51.5" transform="translate(0 0)" fill="#e6e7ec"/>
      <circle id="Elipse_1205" data-name="Elipse 1205" cx="2.779" cy="2.779" r="2.779" transform="translate(81.523 33.388)" fill="#fff"/>
      <circle id="Elipse_1206" data-name="Elipse 1206" cx="3.838" cy="3.838" r="3.838" transform="translate(87.082 24.653)" fill="#fff"/>
      <circle id="Elipse_1207" data-name="Elipse 1207" cx="1.059" cy="1.059" r="1.059" transform="translate(80.464 25.712)" fill="#fff"/>
    </g>
    <g id="Grupo_12346" data-name="Grupo 12346" transform="translate(133.319 258.065) rotate(-8)">
      <g id="Grupo_12347" data-name="Grupo 12347" transform="translate(3.797 22.559)">
        <g id="Grupo_12346-2" data-name="Grupo 12346" transform="translate(0 0)">
          <path id="Caminho_19617" data-name="Caminho 19617" d="M0,1.85V30.366a2.5,2.5,0,0,0,2.5,2.5H27.768a4.108,4.108,0,0,0,2.9-1.2l9.124-8.5a4.108,4.108,0,0,0,1.2-2.9V1.85L36.056,4a1.49,1.49,0,0,1-1.65-.044L28.671.272a1.49,1.49,0,0,0-1.8.065l-4,3.267a1.49,1.49,0,0,1-1.315.29L14.544,1.332a1.49,1.49,0,0,0-1.108.148L8.388,4.717A1.49,1.49,0,0,1,7.06,4.79Z" fill="rgba(31,100,188,0.15)"/>
        </g>
      </g>
      <g id="Grupo_12351" data-name="Grupo 12351" transform="translate(3.797)">
        <g id="Grupo_12350" data-name="Grupo 12350" transform="translate(0)">
          <path id="Caminho_19619" data-name="Caminho 19619" d="M41,19.3V2.5A2.5,2.5,0,0,0,38.5,0H2.5A2.5,2.5,0,0,0,0,2.5V19.3l6.1,3.674a2.336,2.336,0,0,0,2.551-.092l4.04-2.848a2.336,2.336,0,0,1,2.225-.255l5.836,2.37a2.336,2.336,0,0,0,2.274-.291l3.646-2.715a2.336,2.336,0,0,1,2.646-.1l4.5,2.856a2.336,2.336,0,0,0,2.388.068Z" fill="rgba(31,100,188,0.15)"/>
        </g>
      </g>
      <g id="Grupo_12355" data-name="Grupo 12355" transform="translate(29.714 45.322)">
        <g id="Grupo_12354" data-name="Grupo 12354" transform="translate(0)">
          <path id="Caminho_19621" data-name="Caminho 19621" d="M11.555,0H2.624A2.624,2.624,0,0,0,0,2.624v8.4" fill="#94a1d1"/>
        </g>
      </g>
      <g id="Grupo_12356" data-name="Grupo 12356" transform="translate(0 0.558)">
        <path id="Caminho_19622" data-name="Caminho 19622" d="M41.837,10.585a.836.836,0,0,0,.836-.836V3.337A3.341,3.341,0,0,0,39.336,0h-36A3.341,3.341,0,0,0,0,3.337v16.8a.836.836,0,0,0,.4.716l6.1,3.674a3.173,3.173,0,0,0,3.465-.124l4.04-2.848a1.493,1.493,0,0,1,1.428-.164l5.836,2.37a3.19,3.19,0,0,0,3.088-.395l3.646-2.715a1.508,1.508,0,0,1,1.7-.064l4.5,2.856a3.17,3.17,0,0,0,3.243.093l4.793-2.669a.837.837,0,0,0,.429-.731V13.094a.836.836,0,1,0-1.673,0v6.555l-4.364,2.43a1.5,1.5,0,0,1-1.533-.044L30.6,19.18a3.191,3.191,0,0,0-3.594.134l-3.646,2.715a1.509,1.509,0,0,1-1.46.187l-5.836-2.37a3.159,3.159,0,0,0-3.021.346L9,23.04a1.5,1.5,0,0,1-1.638.059l-5.694-3.43V3.337A1.666,1.666,0,0,1,3.337,1.673h36A1.666,1.666,0,0,1,41,3.337V9.749a.836.836,0,0,0,.836.836Z" transform="translate(0)" fill="#535c7d"/>
        <path id="Caminho_19623" data-name="Caminho 19623" d="M42.3,1.985a.837.837,0,0,0-.792-.067l-4.944,2.15a.832.832,0,0,0-.111.058.652.652,0,0,1-.724-.019l-.03-.02L29.973.411a2.334,2.334,0,0,0-2.8.112l-4,3.267a.657.657,0,0,1-.545.134L15.667,1.381c-.026-.009-.052-.018-.078-.024a2.315,2.315,0,0,0-1.73.231l-.038.023L8.8,4.834a.658.658,0,0,1-.567.023l-.01,0L1.158,1.913A.836.836,0,0,0,0,2.685V13.7a.836.836,0,0,0,1.673,0V3.94L7.57,6.4a2.338,2.338,0,0,0,2.067-.116l.038-.023L14.7,3.033a.649.649,0,0,1,.439-.064l6.969,2.544c.026.009.052.018.078.024a2.335,2.335,0,0,0,2.053-.452l4-3.267a.656.656,0,0,1,.79-.028l.03.02,5.721,3.676a2.321,2.321,0,0,0,2.5.094L41,3.961V21.095c0,.092,0,.183-.012.273H32.337a3.464,3.464,0,0,0-3.46,3.46v8.026c-.09.007-.181.012-.273.012H3.337A1.666,1.666,0,0,1,1.673,31.2V17.05A.836.836,0,1,0,0,17.05V31.2a3.341,3.341,0,0,0,3.337,3.337H28.6A4.912,4.912,0,0,0,32.089,33.1l9.114-8.49.021-.021a4.912,4.912,0,0,0,1.448-3.5V2.685a.837.837,0,0,0-.378-.7Zm-11.356,29.9-.021.021a3.3,3.3,0,0,1-.368.318v-7.4a1.789,1.789,0,0,1,1.787-1.787h8.022a3.321,3.321,0,0,1-.307.358Z" transform="translate(0 22.561)" fill="#535c7d"/>
        <path id="Caminho_19624" data-name="Caminho 19624" d="M.836,1.673H6.562A.836.836,0,0,0,6.562,0H.836a.836.836,0,0,0,0,1.673Z" transform="translate(9.658 8.457)" fill="#535c7d"/>
        <path id="Caminho_19625" data-name="Caminho 19625" d="M.836,1.673h21.6a.836.836,0,0,0,0-1.673H.836a.836.836,0,0,0,0,1.673Z" transform="translate(9.658 12.786)" fill="#535c7d"/>
        <path id="Caminho_19626" data-name="Caminho 19626" d="M.836,1.673h21.52a.836.836,0,1,0,0-1.673H.836a.836.836,0,1,0,0,1.673Z" transform="translate(9.74 34.129)" fill="#535c7d"/>
        <path id="Caminho_19627" data-name="Caminho 19627" d="M.836,1.673h21.52a.836.836,0,1,0,0-1.673H.836a.836.836,0,1,0,0,1.673Z" transform="translate(9.74 38.603)" fill="#535c7d"/>
        <path id="Caminho_19628" data-name="Caminho 19628" d="M.836,1.673H16.181a.836.836,0,0,0,0-1.673H.836a.836.836,0,0,0,0,1.673Z" transform="translate(9.74 43.076)" fill="#535c7d"/>
      </g>
    </g>
  </g>
</svg>
