<svg xmlns="http://www.w3.org/2000/svg" width="103" height="103" viewBox="0 0 103 103">
  <g id="Grupo_12361" data-name="Grupo 12361" transform="translate(-113 -241)">
    <g id="Grupo_12333" data-name="Grupo 12333" transform="translate(113 241)">
      <g id="Grupo_12332" data-name="Grupo 12332">
        <circle id="Elipse_1204" data-name="Elipse 1204" cx="51.5" cy="51.5" r="51.5" fill="#e6e7ec"/>
        <circle id="Elipse_1205" data-name="Elipse 1205" cx="2.78" cy="2.78" r="2.78" transform="translate(81.553 33.363)" fill="#fff"/>
        <circle id="Elipse_1206" data-name="Elipse 1206" cx="3.839" cy="3.839" r="3.839" transform="translate(87.113 24.625)" fill="#fff"/>
        <circle id="Elipse_1207" data-name="Elipse 1207" cx="1.059" cy="1.059" r="1.059" transform="translate(80.493 25.684)" fill="#fff"/>
      </g>
    </g>
    <g id="Grupo_12344" data-name="Grupo 12344" transform="translate(139.093 267.093)">
      <path id="Caminho_19601" data-name="Caminho 19601" d="M88.254,120.7h0a3.6,3.6,0,0,1-3.6-3.6v-9.049A12.653,12.653,0,0,0,72,95.392h0a12.653,12.653,0,0,0-12.653,12.653v9.049a3.6,3.6,0,0,1-3.6,3.6h0a2.447,2.447,0,0,0-2.447,2.447v.5a2.447,2.447,0,0,0,2.447,2.447H88.254a2.447,2.447,0,0,0,2.447-2.447v-.5A2.447,2.447,0,0,0,88.254,120.7Z" transform="translate(-44.443 -83.716)" fill="#c8d4e5"/>
      <g id="Grupo_12344-2" data-name="Grupo 12344" transform="translate(0)">
        <path id="Caminho_19602" data-name="Caminho 19602" d="M80.291,35.627a2.706,2.706,0,0,1-2.7-2.7V23.158A14.871,14.871,0,0,0,66.759,8.865a5.344,5.344,0,1,0-8.03,0A14.871,14.871,0,0,0,47.9,23.158v9.767a2.706,2.706,0,0,1-2.7,2.7,3.833,3.833,0,0,0-3.829,3.829v.537A3.833,3.833,0,0,0,45.2,43.822h11.61v1.233a5.938,5.938,0,0,0,11.876,0V43.822h11.61a3.833,3.833,0,0,0,3.829-3.829v-.537A3.833,3.833,0,0,0,80.291,35.627ZM59.775,5.344a2.969,2.969,0,1,1,2.969,2.969A2.972,2.972,0,0,1,59.775,5.344Zm6.532,39.711a3.563,3.563,0,0,1-7.125,0V43.822h7.126v1.233Zm15.439-5.062a1.455,1.455,0,0,1-1.454,1.454H45.2a1.455,1.455,0,0,1-1.454-1.454v-.537A1.455,1.455,0,0,1,45.2,38a5.084,5.084,0,0,0,5.078-5.078V23.158a12.47,12.47,0,0,1,24.939,0v9.767a5.111,5.111,0,0,0,.049.7H69.05a1.188,1.188,0,0,0,0,2.375h7.2A5.072,5.072,0,0,0,80.291,38a1.455,1.455,0,0,1,1.454,1.454v.537Z" transform="translate(-37.362)" fill="#2e3361"/>
        <path id="Caminho_19603" data-name="Caminho 19603" d="M254.449,337.581h-.119a1.188,1.188,0,1,0,0,2.375h.119a1.188,1.188,0,1,0,0-2.375Z" transform="translate(-228.046 -303.96)" fill="#2e3361"/>
        <path id="Caminho_19604" data-name="Caminho 19604" d="M429.523,66.774A25.641,25.641,0,0,0,422.58,51.96a1.188,1.188,0,1,0-1.715,1.643,23.254,23.254,0,0,1,6.3,13.434,1.188,1.188,0,1,0,2.361-.263Z" transform="translate(-378.766 -46.456)" fill="#2e3361"/>
        <path id="Caminho_19605" data-name="Caminho 19605" d="M391.428,97.27a1.188,1.188,0,1,0,2.361-.263,20.865,20.865,0,0,0-5.652-12.054,1.188,1.188,0,1,0-1.715,1.643A18.478,18.478,0,0,1,391.428,97.27Z" transform="translate(-347.754 -76.163)" fill="#2e3361"/>
        <path id="Caminho_19606" data-name="Caminho 19606" d="M9.779,51.923a1.188,1.188,0,0,0-1.679.036A25.643,25.643,0,0,0,1.157,66.773a1.188,1.188,0,1,0,2.361.263A23.254,23.254,0,0,1,9.814,53.6,1.187,1.187,0,0,0,9.779,51.923Z" transform="translate(-1.15 -46.455)" fill="#2e3361"/>
        <path id="Caminho_19607" data-name="Caminho 19607" d="M49.611,98.318a1.186,1.186,0,0,0,1.312-1.049A18.478,18.478,0,0,1,55.929,86.6a1.188,1.188,0,0,0-1.715-1.643,20.864,20.864,0,0,0-5.651,12.054A1.188,1.188,0,0,0,49.611,98.318Z" transform="translate(-43.833 -76.162)" fill="#2e3361"/>
      </g>
    </g>
  </g>
</svg>
